<svg width="81" height="81" viewBox="0 0 81 81" fill="none" xmlns="http://www.w3.org/2000/svg">
<path d="M73.8333 73.8333L60.5 60.5H27.1666C25.3333 60.5 23.7638 59.8472 22.4583 58.5417C21.1527 57.2361 20.5 55.6667 20.5 53.8333V50.5H57.1666C59 50.5 60.5694 49.8472 61.875 48.5417C63.1805 47.2361 63.8333 45.6667 63.8333 43.8333V20.5H67.1666C69 20.5 70.5694 21.1528 71.875 22.4583C73.1805 23.7639 73.8333 25.3333 73.8333 27.1667V73.8333ZM13.8333 41.0833L17.75 37.1667H50.5V13.8333H13.8333V41.0833ZM7.16663 57.1667V13.8333C7.16663 12 7.8194 10.4306 9.12496 9.125C10.4305 7.81944 12 7.16666 13.8333 7.16666H50.5C52.3333 7.16666 53.9027 7.81944 55.2083 9.125C56.5138 10.4306 57.1666 12 57.1666 13.8333V37.1667C57.1666 39 56.5138 40.5694 55.2083 41.875C53.9027 43.1805 52.3333 43.8333 50.5 43.8333H20.5L7.16663 57.1667Z" fill="#C45454"/>
</svg>
