<svg width="80" height="81" viewBox="0 0 80 81" fill="none" xmlns="http://www.w3.org/2000/svg">
<path d="M20 73.8333C18.1667 73.8333 16.5973 73.1805 15.2917 71.875C13.9862 70.5694 13.3334 69 13.3334 67.1667V27.1667C13.3334 25.3333 13.9862 23.7639 15.2917 22.4583C16.5973 21.1528 18.1667 20.5 20 20.5H26.6667C26.6667 16.8333 27.9723 13.6944 30.5834 11.0833C33.1945 8.47222 36.3334 7.16666 40 7.16666C43.6667 7.16666 46.8056 8.47222 49.4167 11.0833C52.0278 13.6944 53.3334 16.8333 53.3334 20.5H60C61.8334 20.5 63.4028 21.1528 64.7084 22.4583C66.0139 23.7639 66.6667 25.3333 66.6667 27.1667V67.1667C66.6667 69 66.0139 70.5694 64.7084 71.875C63.4028 73.1805 61.8334 73.8333 60 73.8333H20ZM20 67.1667H60V27.1667H53.3334V33.8333C53.3334 34.7778 53.0139 35.5694 52.375 36.2083C51.7361 36.8472 50.9445 37.1667 50 37.1667C49.0556 37.1667 48.2639 36.8472 47.625 36.2083C46.9861 35.5694 46.6667 34.7778 46.6667 33.8333V27.1667H33.3334V33.8333C33.3334 34.7778 33.0139 35.5694 32.375 36.2083C31.7362 36.8472 30.9445 37.1667 30 37.1667C29.0556 37.1667 28.2639 36.8472 27.625 36.2083C26.9862 35.5694 26.6667 34.7778 26.6667 33.8333V27.1667H20V67.1667ZM33.3334 20.5H46.6667C46.6667 18.6667 46.0139 17.0972 44.7084 15.7917C43.4028 14.4861 41.8334 13.8333 40 13.8333C38.1667 13.8333 36.5973 14.4861 35.2917 15.7917C33.9862 17.0972 33.3334 18.6667 33.3334 20.5Z" fill="#C45454"/>
</svg>
