<svg width="121" height="120" viewBox="0 0 121 120" fill="none" xmlns="http://www.w3.org/2000/svg">
<path d="M55.25 77.75L83.5 49.5L76.375 42.375L55.25 63.5L44.75 53L37.625 60.125L55.25 77.75ZM60.5 110C48.9167 107.083 39.3542 100.438 31.8125 90.0625C24.2708 79.6875 20.5 68.1667 20.5 55.5V25L60.5 10L100.5 25V55.5C100.5 68.1667 96.7292 79.6875 89.1875 90.0625C81.6458 100.438 72.0833 107.083 60.5 110ZM60.5 99.5C69.1667 96.75 76.3333 91.25 82 83C87.6667 74.75 90.5 65.5833 90.5 55.5V31.875L60.5 20.625L30.5 31.875V55.5C30.5 65.5833 33.3333 74.75 39 83C44.6667 91.25 51.8333 96.75 60.5 99.5Z" fill="#C45454"/>
</svg>
