<svg width="121" height="120" viewBox="0 0 121 120" fill="none" xmlns="http://www.w3.org/2000/svg">
<path d="M107.5 71.25L71.75 107C70.75 108 69.625 108.75 68.375 109.25C67.125 109.75 65.875 110 64.625 110C63.375 110 62.125 109.75 60.875 109.25C59.625 108.75 58.5 108 57.5 107L13.375 62.875C12.4583 61.9583 11.75 60.8958 11.25 59.6875C10.75 58.4792 10.5 57.2083 10.5 55.875V20C10.5 17.25 11.4792 14.8958 13.4375 12.9375C15.3958 10.9792 17.75 10 20.5 10H56.375C57.7083 10 59 10.2708 60.25 10.8125C61.5 11.3542 62.5833 12.0833 63.5 13L107.5 57.125C108.5 58.125 109.229 59.25 109.688 60.5C110.146 61.75 110.375 63 110.375 64.25C110.375 65.5 110.146 66.7292 109.688 67.9375C109.229 69.1458 108.5 70.25 107.5 71.25ZM64.625 100L100.375 64.25L56.25 20H20.5V55.75L64.625 100ZM33 40C35.0833 40 36.8542 39.2708 38.3125 37.8125C39.7708 36.3542 40.5 34.5833 40.5 32.5C40.5 30.4167 39.7708 28.6458 38.3125 27.1875C36.8542 25.7292 35.0833 25 33 25C30.9167 25 29.1458 25.7292 27.6875 27.1875C26.2292 28.6458 25.5 30.4167 25.5 32.5C25.5 34.5833 26.2292 36.3542 27.6875 37.8125C29.1458 39.2708 30.9167 40 33 40Z" fill="#C45454"/>
</svg>
