<svg width="120" height="120" viewBox="0 0 120 120" fill="none" xmlns="http://www.w3.org/2000/svg">
<path d="M30 100C25.8333 100 22.2917 98.5417 19.375 95.625C16.4583 92.7083 15 89.1667 15 85H5V30C5 27.25 5.97917 24.8958 7.9375 22.9375C9.89583 20.9792 12.25 20 15 20H85V40H100L115 60V85H105C105 89.1667 103.542 92.7083 100.625 95.625C97.7083 98.5417 94.1667 100 90 100C85.8333 100 82.2917 98.5417 79.375 95.625C76.4583 92.7083 75 89.1667 75 85H45C45 89.1667 43.5417 92.7083 40.625 95.625C37.7083 98.5417 34.1667 100 30 100ZM30 90C31.4167 90 32.6042 89.5208 33.5625 88.5625C34.5208 87.6042 35 86.4167 35 85C35 83.5833 34.5208 82.3958 33.5625 81.4375C32.6042 80.4792 31.4167 80 30 80C28.5833 80 27.3958 80.4792 26.4375 81.4375C25.4792 82.3958 25 83.5833 25 85C25 86.4167 25.4792 87.6042 26.4375 88.5625C27.3958 89.5208 28.5833 90 30 90ZM15 75H19C20.4167 73.5 22.0417 72.2917 23.875 71.375C25.7083 70.4583 27.75 70 30 70C32.25 70 34.2917 70.4583 36.125 71.375C37.9583 72.2917 39.5833 73.5 41 75H75V30H15V75ZM90 90C91.4167 90 92.6042 89.5208 93.5625 88.5625C94.5208 87.6042 95 86.4167 95 85C95 83.5833 94.5208 82.3958 93.5625 81.4375C92.6042 80.4792 91.4167 80 90 80C88.5833 80 87.3958 80.4792 86.4375 81.4375C85.4792 82.3958 85 83.5833 85 85C85 86.4167 85.4792 87.6042 86.4375 88.5625C87.3958 89.5208 88.5833 90 90 90ZM85 65H106.25L95 50H85V65Z" fill="#C45454"/>
</svg>
