<svg width="81" height="81" viewBox="0 0 81 81" fill="none" xmlns="http://www.w3.org/2000/svg">
<path d="M40.5 40.5C36.8334 40.5 33.6945 39.1944 31.0834 36.5833C28.4723 33.9722 27.1667 30.8333 27.1667 27.1667C27.1667 23.5 28.4723 20.3611 31.0834 17.75C33.6945 15.1389 36.8334 13.8333 40.5 13.8333C44.1667 13.8333 47.3056 15.1389 49.9167 17.75C52.5278 20.3611 53.8334 23.5 53.8334 27.1667C53.8334 30.8333 52.5278 33.9722 49.9167 36.5833C47.3056 39.1944 44.1667 40.5 40.5 40.5ZM13.8334 67.1667V57.8333C13.8334 55.9444 14.3195 54.2083 15.2917 52.625C16.2639 51.0417 17.5556 49.8333 19.1667 49C22.6112 47.2778 26.1112 45.9861 29.6667 45.125C33.2223 44.2639 36.8334 43.8333 40.5 43.8333C44.1667 43.8333 47.7778 44.2639 51.3334 45.125C54.8889 45.9861 58.3889 47.2778 61.8334 49C63.4445 49.8333 64.7361 51.0417 65.7084 52.625C66.6806 54.2083 67.1667 55.9444 67.1667 57.8333V67.1667H13.8334ZM20.5 60.5H60.5V57.8333C60.5 57.2222 60.3473 56.6667 60.0417 56.1667C59.7361 55.6667 59.3334 55.2778 58.8334 55C55.8334 53.5 52.8056 52.375 49.75 51.625C46.6945 50.875 43.6112 50.5 40.5 50.5C37.3889 50.5 34.3056 50.875 31.25 51.625C28.1945 52.375 25.1667 53.5 22.1667 55C21.6667 55.2778 21.2639 55.6667 20.9584 56.1667C20.6528 56.6667 20.5 57.2222 20.5 57.8333V60.5ZM40.5 33.8333C42.3334 33.8333 43.9028 33.1806 45.2084 31.875C46.5139 30.5694 47.1667 29 47.1667 27.1667C47.1667 25.3333 46.5139 23.7639 45.2084 22.4583C43.9028 21.1528 42.3334 20.5 40.5 20.5C38.6667 20.5 37.0973 21.1528 35.7917 22.4583C34.4862 23.7639 33.8334 25.3333 33.8334 27.1667C33.8334 29 34.4862 30.5694 35.7917 31.875C37.0973 33.1806 38.6667 33.8333 40.5 33.8333Z" fill="#C45454"/>
</svg>
